# xmcd
#
# Track frame offsets: 
#        150
#        41119
#        60080
#        87698
#        112402
#        153633
#        173953
#        200274
#        236573
#        259008
#
# Disc length: 3999 seconds
#
# Revision: 0
# Processed by: cddbd v1.5.2PL0 Copyright (c) Steve Scherf et al.
# Submitted via: ExactAudioCopy v0.99pb4
#
DISCID=8b0f9d0a
DTITLE=Tom Waits - 1975-10-25 Texas Hall, Arlington, TX
DYEAR=1975
DGENRE=Blues
TTITLE0=Spare parts  - Emotional weather report  - Diamonds on my windsh
TTITLE0=ield
TTITLE1=Better off without a wife
TTITLE2=Semi suite
TTITLE3=Eggs and sausage
TTITLE4=The ghosts of Saturday night  - The heart of Saturday night
TTITLE5=Drunk on the moon
TTITLE6=Ol' '55
TTITLE7=Nighthawks postcard
TTITLE8=Warm beer and cold women
TTITLE9=Putnam county
EXTD=
EXTT0=
EXTT1=
EXTT2=
EXTT3=
EXTT4=
EXTT5=
EXTT6=
EXTT7=
EXTT8=
EXTT9=
PLAYORDER=
